# AST/ASF file generated using VICON BodyLanguage
# -----------------------------------------------
:version 1.10
:name VICON
:units
  mass 1.0
  length 0.45
  angle deg
:documentation
   .ast/.asf automatically generated from VICON data using
   VICON BodyBuilder and BodyLanguage model FoxedUp or BRILLIANT.MOD
:root
   order TX TY TZ RX RY RZ
   axis XYZ
   position 0 0 0  
   orientation 0 0 0 
:bonedata
  begin
     id 1 
     name lhipjoint
     direction 0.661853 -0.702389 0.261917 
     length 2.64193 
     axis 0 0 0  XYZ
  end
  begin
     id 2 
     name lfemur
     direction 0.34202 -0.939693 0  
     length 7.01722  
     axis 0 0 20  XYZ
    dof rx ry rz
    limits (-160.0 20.0)
           (-70.0 70.0)
           (-60.0 70.0)
  end
  begin
     id 3 
     name ltibia
     direction 0.34202 -0.939693 0   
     length 8.25008   
     axis 0 0 20   XYZ
    dof rx
    limits (-10.0 170.0)
  end
  begin
     id 4 
     name lfoot
     direction 0.0709916 -0.195048 0.978221   
     length 2.31941   
     axis -90 7.62852e-016 20   XYZ
    dof rx rz
    limits (-45.0 90.0)
           (-70.0 20.0)
  end
  begin
     id 5 
     name ltoes
     direction 1.53586e-011 -4.22017e-011 1   
     length 1.16486   
     axis -90 7.62852e-016 20   XYZ
    dof rx
    limits (-90.0 20.0)
  end
  begin
     id 6 
     name rhipjoint
     direction -0.638185 -0.721362 0.268992   
     length 2.57244  
     axis 0 0 0  XYZ 
  end
  begin
     id 7 
     name rfemur
     direction -0.34202 -0.939693 0   
     length 7.07017   
     axis 0 0 -20   XYZ
    dof rx ry rz
    limits (-160.0 20.0)
           (-70.0 70.0)
           (-70.0 60.0)
  end
  begin
     id 8 
     name rtibia
     direction -0.34202 -0.939693 0   
     length 8.20386   
     axis 0 0 -20   XYZ
    dof rx
    limits (-10.0 170.0)
 end
 begin
     id 9 
     name rfoot
     direction -0.0822429 -0.225961 0.970658   
     length 2.32215  
     axis -90 -7.62852e-016 -20   XYZ
    dof rx rz
    limits (-45.0 90.0)
           (-20.0 70.0)
  end
  begin
     id 10 
     name rtoes
     direction -1.53597e-011 -4.21689e-011 1   
     length 1.16333   
     axis -90 -7.62852e-016 -20   XYZ
    dof rx
    limits (-90.0 20.0)
  end
  begin
     id 11 
     name lowerback
     direction -0.0131557 0.998589 -0.0514484   
     length 2.14993   
     axis 0 0 0   XYZ
    dof rx ry rz
    limits (-20.0 45.0)
           (-30.0 30.0)
           (-30.0 30.0)
  end
  begin
     id 12 
     name upperback
     direction -0.000776481 0.999993 0.00352685   
     length 2.15301   
     axis 0 0 0   XYZ
    dof rx ry rz
    limits (-20.0 45.0)
           (-30.0 30.0)
           (-30.0 30.0)
  end
  begin
     id 13 
     name thorax
     direction 0.00438186 0.999609 0.0276143   
     length 2.15424   
     axis 0 0 0   XYZ
    dof rx ry rz
    limits (-20.0 45.0)
           (-30.0 30.0)
           (-30.0 30.0)
  end
  begin
     id 14 
     name lowerneck
     direction -0.0488006 0.998094 0.0377807   
     length 1.90481   
     axis 0 0 0   XYZ
    dof rx ry rz
    limits (-20.0 45.0)
           (-30.0 30.0)
           (-30.0 30.0)
  end
  begin
     id 15 
     name upperneck
     direction 0.0443769 0.990702 -0.12861   
     length 1.91305   
     axis 0 0 0   XYZ
    dof rx ry rz
    limits (-20.0 45.0)
           (-30.0 30.0)
           (-30.0 30.0)
  end
  begin
     id 16
     name head
     direction 0.0165599 0.998647 -0.0492982  
     length 1.92369  
     axis 0 0 0   XYZ
    dof rx ry rz
    limits (-20.0 45.0)
           (-30.0 30.0)
           (-30.0 30.0)
  end
  begin
     id 17 
     name lclavicle
     direction 0.911936 0.410197 -0.0105506  
     length 3.52622  
     axis 0 0 0   XYZ
    dof ry rz
    limits (-20.0 10.0)
           (0.0 20.0)
  end
  begin
     id 18 
     name lhumerus
     direction 1 -4.48974e-011 -2.48591e-028   
     length 5.47651   
     axis 180 -30 -90   XYZ
    dof rx ry rz
    limits (-60.0 90.0)
           (-90.0 90.0)
           (-90.0 90.0)
  end
  begin
     id 19
     name lradius
     direction 1 -4.48938e-011 -4.40099e-027   
     length 3.09058   
     axis 180 -30 -90   XYZ
    dof rx
    limits (-10.0 170.0)
  end
  begin
     id 20
     name lwrist
     direction 1 -4.49042e-011 -2.99852e-027   
     length 1.54529   
     axis 1.95339e-015 90 90   XYZ
    dof ry
    limits (-180.0 0.0)
 end
  begin
     id 21 
     name lhand
     direction 1 -4.48815e-011 -5.98193e-027   
     length 0.771611   
     axis 3.82337e-015 90 90   XYZ
    dof rx rz
    limits (-90.0 90.0)
           (-45.0 45.0)
  end
  begin
     id 22 
     name lfingers
     direction 1 -4.49034e-011 -1.1993e-026   
     length 0.622093   
     axis 7.64668e-015 90 90   XYZ
    dof rx
    limits (0.0 90.0)
  end
  begin
     id 23
     name lthumb
     direction 0.707107 -6.34867e-011 0.707107   
     length 0.893204   
     axis -90 45 -1.62303e-014   XYZ
    dof rx rz
    limits (-45.0 45.0)
           (-45.0 45.0)
  end
  begin
     id 24 
     name rclavicle
     direction -0.93442 0.355634 -0.0195692   
     length 3.62463  
     axis 0 0 0   XYZ 
    dof ry rz
    limits (-10.0 20.0)
           (-20.0 0.0)
  end
  begin
     id 25 
     name rhumerus
     direction -1 -4.48957e-011 -1.19147e-027  
     length 5.14182   
     axis 180 30 90   XYZ
    dof rx ry rz
    limits (-90.0 60.0)
           (-90.0 90.0)
           (-90.0 90.0)
  end
  begin
     id 26 
     name rradius
     direction -1 -4.48952e-011 -3.81062e-027   
     length 3.35565   
     axis 180 30 90   XYZ
    dof rx
    limits (-10.0 170.0)
  end
  begin
     id 27 
     name rwrist
     direction -1 -4.48973e-011 -2.99621e-027   
     length 1.67782   
     axis 1.95339e-015 -90 -90   XYZ
    dof ry
    limits (-180.0 0.0)
  end
  begin
     id 28
     name rhand
     direction -1 -4.48895e-011 -5.98727e-027   
     length 0.801042   
     axis 3.82337e-015 -90 -90   XYZ
    dof rx rz
    limits (-90.0 90.0)
           (-45.0 45.0)
  end
  begin
     id 29
     name rfingers
     direction -1 -4.49065e-011 -1.19972e-026   
     length 0.645821   
     axis 7.64668e-015 -90 -90   XYZ
    dof rx
    limits (0.0 90.0)
  end
  begin
     id 30
     name rthumb
     direction -0.707107 -6.34957e-011 0.707107   
     length 0.927273   
     axis -90 -45 1.62303e-014   XYZ
    dof rx rz
    limits (-45.0 45.0)
           (-45.0 45.0)
  end
:hierarchy
  begin
    root lhipjoint rhipjoint lowerback
    lhipjoint lfemur
    lfemur ltibia
    ltibia lfoot
    lfoot ltoes
    rhipjoint rfemur
    rfemur rtibia
    rtibia rfoot
    rfoot rtoes
    lowerback upperback
    upperback thorax
    thorax lowerneck lclavicle rclavicle
    lowerneck upperneck
    upperneck head
    lclavicle lhumerus
    lhumerus lradius
    lradius lwrist
    lwrist lhand lthumb
    lhand lfingers
    rclavicle rhumerus
    rhumerus rradius
    rradius rwrist
    rwrist rhand rthumb
    rhand rfingers
  end

#!OML:ASF E:\Style4\Style4.ASF
:FULLY-SPECIFIED
:DEGREES
215
root 0.0168593 18.1372 0.226914 5.00453 -4.76691 2.40012
lowerback 2.33006 2.53309 -0.601787
upperback -2.88532 3.34337 -0.420609
thorax -4.28764 1.67507 -0.298561
lowerneck 1.93688 -3.29099 -5.09594
upperneck 4.44142 -4.52728 2.73616
head 1.2486 -2.31217 1.69354
rclavicle 3.14786e-014 1.55052e-014
rhumerus -85.4652 49.8096 -116.567
rradius 86.3361
rwrist -26.2483
rhand 5.02347 24.6385
rfingers 7.12502
rthumb 30.3924 -2.87702
lclavicle 3.14786e-014 1.55052e-014
lhumerus -90.7776 -54.8903 117.959
lradius 94.8603
lwrist 2.34272
lhand -2.0829 7.96395
lfingers 7.12502
lthumb 23.5939 36.5365
rfemur -5.14258 9.10964 15.7153
rtibia 17.1587
rfoot -15.3797 -14.754
rtoes -13.2966
lfemur 1.57154 -3.26427 -22.2769
ltibia 7.64096
lfoot -15.0218 14.4056
ltoes -13.9373
216
root 0.0191785 18.1388 0.21576 5.06997 -5.09847 2.33444
lowerback 2.42155 2.63232 -0.59301
upperback -2.93228 3.4769 -0.385505
thorax -4.3904 1.74158 -0.281805
lowerneck 1.8787 -3.25327 -5.10897
upperneck 4.36602 -4.47397 2.75254
head 1.23323 -2.28463 1.70118
rclavicle -1.24372e-014 -9.93923e-015
rhumerus -85.3592 49.9585 -116.462
rradius 85.9882
rwrist -26.1636
rhand 5.193 24.6401
rfingers 7.12502
rthumb 30.554 -2.8454
lclavicle -1.24372e-014 -9.93923e-015
lhumerus -90.6256 -54.922 117.805
lradius 94.6068
lwrist 2.22667
lhand -2.65921 7.86731
lfingers 7.12502
lthumb 23.041 36.51
rfemur -5.3079 9.15085 15.6985
rtibia 17.076
rfoot -15.1961 -14.5019
rtoes -13.5522
lfemur 1.4285 -2.93092 -22.2494
ltibia 7.74945
lfoot -15.0833 14.3843
ltoes -13.7688
217
root 0.0196182 18.141 0.20131 5.12185 -5.66333 2.24016
lowerback 2.57018 2.82564 -0.591445
upperback -2.98359 3.73509 -0.362262
thorax -4.53042 1.86989 -0.285086
lowerneck 1.88537 -3.2351 -5.1159
upperneck 4.1974 -4.45073 2.82321
head 1.17983 -2.2712 1.72658
rclavicle 6.47968e-014 1.63003e-014
rhumerus -85.1142 50.0081 -116.249
rradius 85.583
rwrist -25.9934
rhand 5.41411 24.5004
rfingers 7.12502
rthumb 30.7649 -2.94557
lclavicle 6.47968e-014 1.63003e-014
lhumerus -90.503 -54.9984 117.681
lradius 94.2745
lwrist 2.30391
lhand -2.66676 7.99378
lfingers 7.12502
lthumb 23.0337 36.6373
rfemur -5.50144 9.288 15.6826
rtibia 16.9839
rfoot -15.0545 -14.0604
rtoes -13.5058
lfemur 1.34223 -2.36208 -22.2088
ltibia 7.82148
lfoot -15.2697 14.3664
ltoes -13.5831
218
root 0.0209986 18.1437 0.197005 5.13557 -5.35207 2.20715
lowerback 2.66466 2.71976 -0.537342
upperback -3.01904 3.59638 -0.338941
thorax -4.6187 1.79928 -0.288353
lowerneck 1.88305 -3.21163 -5.13535
upperneck 4.08779 -4.41991 2.87353
head 1.14615 -2.2548 1.74721
rclavicle 1.70054e-016 -1.98785e-015
rhumerus -84.9657 50.0546 -116.121
rradius 85.133
rwrist -25.9202
rhand 5.59849 24.3708
rfingers 7.12502
rthumb 30.9407 -3.04194
lclavicle 1.70054e-016 -1.98785e-015
lhumerus -90.433 -54.9924 117.665
lradius 93.85
lwrist 2.65919
lhand -2.28954 8.33442
lfingers 7.12502
lthumb 23.3957 36.9324
rfemur -5.3976 9.15591 15.7581
rtibia 16.894
rfoot -15.0731 -14.2016
rtoes -13.3819
lfemur 1.2723 -2.66954 -22.1258
ltibia 7.84402
lfoot -15.2194 14.358
ltoes -13.6524
219
root 0.0235612 18.1454 0.194075 5.07618 -4.9315 2.21361
lowerback 2.82701 2.57937 -0.492652
upperback -3.03954 3.41053 -0.321716
thorax -4.73027 1.70528 -0.291958
lowerneck 1.89753 -3.20104 -5.08747
upperneck 4.02006 -4.40362 2.81939
head 1.11862 -2.24606 1.72198
rclavicle -4.18931e-014 4.37326e-015
rhumerus -84.7571 50.0562 -115.924
rradius 84.6003
rwrist -25.7983
rhand 5.97983 23.9454
rfingers 7.12502
rthumb 31.3041 -3.39765
lclavicle -4.18931e-014 4.37326e-015
lhumerus -90.2963 -54.9672 117.615
lradius 93.3643
lwrist 3.13803
lhand -1.97819 8.61423
lfingers 7.12502
lthumb 23.6943 37.1738
rfemur -5.19319 8.97558 15.8143
rtibia 16.8005
rfoot -15.1263 -14.3858
rtoes -13.2468
lfemur 1.31053 -3.08669 -22.0853
ltibia 7.79916
lfoot -14.9904 14.3478
ltoes -13.7746
220
root 0.0225626 18.1485 0.19026 5.12391 -4.67181 2.26261
lowerback 2.87772 2.48739 -0.56689
upperback -3.09131 3.28371 -0.313662
thorax -4.81762 1.64482 -0.237692
lowerneck 1.90549 -3.18631 -5.06535
upperneck 3.99155 -4.3841 2.82687
head 1.107 -2.23578 1.72096
rclavicle 3.35486e-014 -1.19271e-014
rhumerus -84.5381 50.0404 -115.714
rradius 84.0564
rwrist -25.7428
rhand 6.82029 22.8177
rfingers 7.12502
rthumb 32.1046 -4.36718
lclavicle 3.35486e-014 -1.19271e-014
lhumerus -90.1487 -54.9483 117.522
lradius 92.8538
lwrist 3.63993
lhand -1.84611 8.90688
lfingers 7.12502
lthumb 23.821 37.45
rfemur -5.15169 8.87717 15.7959
rtibia 16.6893
rfoot -15.0347 -14.5981
rtoes -13.3568
lfemur 1.26069 -3.35148 -22.091
ltibia 7.70293
lfoot -14.8539 14.4514
ltoes -14.6422
221
root 0.0206555 18.1526 0.182623 5.17547 -4.58733 2.30336
lowerback 2.96211 2.44832 -0.659644
upperback -3.1406 3.22663 -0.298
thorax -4.92313 1.61984 -0.171517
lowerneck 1.9373 -3.15871 -5.13104
upperneck 3.9023 -4.35049 2.89221
head 1.07552 -2.21891 1.75508
rclavicle -4.27365e-014 -8.74653e-015
rhumerus -84.2713 50.1005 -115.469
rradius 83.4587
rwrist -25.8243
rhand 7.62075 21.9545
rfingers 7.12502
rthumb 32.8664 -5.07385
lclavicle -4.27365e-014 -8.74653e-015
lhumerus -89.8242 -54.9107 117.317
lradius 92.2366
lwrist 4.12178
lhand -1.36505 9.52126
lfingers 7.12502
lthumb 24.2823 38.0034
rfemur -5.18231 8.88954 15.7557
rtibia 16.6253
rfoot -15.0182 -14.683
rtoes -13.0449
lfemur 1.21973 -3.44126 -22.1025
ltibia 7.58993
lfoot -14.8004 14.5304
ltoes -15.1525
222
root 0.0205636 18.1542 0.172159 5.20268 -4.50945 2.33958
lowerback 3.10788 2.42004 -0.70329
upperback -3.1841 3.18484 -0.305462
thorax -5.05346 1.60022 -0.160154
lowerneck 1.98535 -3.13541 -5.12068
upperneck 3.81064 -4.32131 2.91546
head 1.03742 -2.20366 1.76234
rclavicle -5.28255e-015 -4.77083e-015
rhumerus -83.8356 50.0759 -115.104
rradius 82.7562
rwrist -25.8315
rhand 8.02426 21.624
rfingers 7.12502
rthumb 33.2501 -5.32315
lclavicle -5.28255e-015 -4.77083e-015
lhumerus -89.4304 -54.8872 117.037
lradius 91.5669
lwrist 4.58904
lhand -0.233378 10.5921
lfingers 7.12502
lthumb 25.3668 38.9248
rfemur -5.22091 8.91427 15.7116
rtibia 16.5994
rfoot -15.0145 -14.7213
rtoes -12.8737
lfemur 1.17301 -3.52319 -22.1144
ltibia 7.52294
lfoot -14.7364 14.5175
ltoes -15.0003
